<?xml version="1.0" encoding="UTF-8"?>
<!DOCTYPE svg PUBLIC "-//W3C//DTD SVG 1.1//EN" "http://www.w3.org/Graphics/SVG/1.1/DTD/svg11.dtd">
<!-- Creator: CorelDRAW X7 -->
<svg xmlns="http://www.w3.org/2000/svg" xml:space="preserve" width="1890px" height="2480px" version="1.1" style="shape-rendering:geometricPrecision; text-rendering:geometricPrecision; image-rendering:optimizeQuality; fill-rule:evenodd; clip-rule:evenodd"
viewBox="0 0 1890 2481"
 xmlns:xlink="http://www.w3.org/1999/xlink">
 <defs>
  <style type="text/css">
   <![CDATA[
    .fil1 {fill:#FEFEFE}
    .fil2 {fill:#E31E24}
    .fil0 {fill:#56698F}
   ]]>
  </style>
 </defs>
 <g id="Слой_x0020_1">
  <metadata id="CorelCorpID_0Corel-Layer"/>
  <path class="fil0" d="M952 2479l1 0c68,0 138,-32 184,-93l2 -3 1 -3c286,-459 468,-736 582,-938 113,-200 161,-335 161,-490 0,-51 -5,-102 -13,-158 -63,-451 -462,-796 -918,-793 -458,0 -854,338 -918,793 -8,56 -12,107 -12,158 -1,155 47,290 161,490 113,202 296,479 581,938l2 3 2 3c45,61 115,93 183,93l1 0z"/>
  <circle class="fil1" cx="965" cy="934" r="680"/>
  <g id="_2287788098608">
   <path class="fil2" d="M1112 1342l-67 0c-11,-55 -42,-191 -76,-231 3,55 34,167 35,231l-433 1c-3,-66 0,-142 0,-208l0 -315c1,-32 -8,-33 -38,-67 -24,-28 -53,-51 -83,-73 -10,-8 -23,-15 -31,-24 117,9 273,86 365,151 18,12 30,22 49,37 112,91 192,217 244,359 9,25 36,113 35,139z"/>
   <path class="fil2" d="M1376 881c-11,-5 -19,-12 -28,-19 -10,-7 -18,-12 -28,-19 -45,-31 -129,-81 -180,-94l9 8c33,24 71,47 104,77 60,55 62,60 114,119 8,8 9,8 9,23 0,19 2,48 -1,66l-109 -117c-59,-57 -147,-127 -219,-168 -130,-74 -297,-137 -474,-144 -4,-15 -2,-57 -1,-75l804 0 0 343z"/>
   <path class="fil0" d="M1376 1291l0 51 -84 0c-13,-51 -25,-90 -44,-136 -8,-19 -20,-44 -29,-61 -8,-15 -27,-47 -32,-59l73 0c22,0 17,3 38,37 7,10 12,19 19,31 13,24 59,108 59,137z"/>
   <path class="fil0" d="M1247 1049c-108,0 -73,10 -109,-35 -15,-19 -38,-50 -55,-67 -9,-8 -25,-25 -30,-35 18,1 66,-5 79,4 19,13 103,111 115,133z"/>
   <path class="fil0" d="M1089 878l-66 0c-13,0 -11,-2 -18,-8 -37,-33 -88,-65 -104,-81 70,-4 67,-4 111,26 13,9 27,20 39,29 6,5 12,11 18,16l20 18z"/>
   <path class="fil0" d="M922 760c-64,6 -64,3 -107,-21 -14,-7 -28,-14 -42,-20 -13,-7 -34,-13 -44,-22 55,-5 65,1 108,20 19,8 75,32 85,43z"/>
   <path class="fil0" d="M719 674c-47,5 -63,-3 -102,-15 -26,-9 -66,-21 -93,-25 33,-1 174,27 195,40z"/>
  </g>
 </g>
</svg>
